<?xml version="1.0" encoding="utf-8"?>
<!-- Generator: Adobe Illustrator 16.0.0, SVG Export Plug-In . SVG Version: 6.00 Build 0)  -->
<!DOCTYPE svg PUBLIC "-//W3C//DTD SVG 1.1//EN" "http://www.w3.org/Graphics/SVG/1.1/DTD/svg11.dtd">
<svg version="1.1" id="圖層_2" xmlns="http://www.w3.org/2000/svg" xmlns:xlink="http://www.w3.org/1999/xlink" x="0px" y="0px"
	 width="24px" height="24px" viewBox="0 0 24 24" enable-background="new 0 0 24 24" xml:space="preserve">
<path d="M2.744,2.044C1.716,2.201,1.014,4.01,4.081,6.129
	C5.651,6.029,4.206,2.215,2.744,2.044z"/>
<path d="M2.061,0.545c0,0,2.917,0.848,3.889,4.238
	C7.371,4.36,6.977,4.658,8.244,4.933c0-0.299-0.748-2.885,0.599-2.888C8.767,1.418,5.202,0.372,2.061,0.545z"/>
<path d="M2.435,6.304c0,0,2.244,1.495,3.266-0.648
	c1.421,1.146,1.869,5.658,2.717,6.73c0.848,1.072-0.523-1.421-4.661,0C2.61,9.595,2.435,6.304,2.435,6.304z"/>
<path d="M10.313,2.187c-0.868,0-1.57,0.691-1.57,1.545
	c0,0.854,0.703,1.545,1.57,1.545s1.571-0.691,1.571-1.545C11.883,2.878,11.18,2.187,10.313,2.187z M10.313,4.28
	c-0.303,0-0.548-0.246-0.548-0.548c0-0.303,0.245-0.548,0.548-0.548s0.549,0.246,0.549,0.548C10.861,4.035,10.616,4.28,10.313,4.28z
	"/>
<path d="M4.43,23.62l8.825-0.101c0,0-2.345-7.776-3.192-7.752
	s-0.848,3.015-5.135,2.815C3.931,19.806,4.43,23.62,4.43,23.62z"/>
<path d="M12.021,2.187l0.636,0.997l0.598-0.126
	c0,0,0.374-1.322,0-1.446S12.208,1.79,12.021,2.187z"/>
<path d="M14.053,1.583c0,0-0.25,1.886,2.168,3.35
	c1.404,0.32,1.295-1.053,0.473-1.477C15.75,2.315,15.123,0.963,14.053,1.583z"/>
<g>
	<path d="M16.594,6.793c-4.137-0.188-4.137-0.188-4.137-0.188
		c-0.386,0-0.698,0.313-0.698,0.698s0.313,0.698,0.698,0.698l2.268,0.163l0.041,0.009c-0.027,0.122-0.041,0.248-0.041,0.378
		c0,0.97,0.787,1.757,1.758,1.757s1.758-0.787,1.758-1.757c0-0.933-0.727-1.697-1.646-1.754c-0.037-0.002-0.074-0.003-0.111-0.003"
		/>
	<path d="M20.01,12.175v4.812h-1.496v6.481h-4.213v-6.481h-1.445V14.19
		v-2.015v0.013c0-0.709,0.524-1.284,1.172-1.284h4.811c0.486,0,0.902,0.324,1.08,0.785c0.059,0.153,0.092,0.322,0.092,0.499"/>
</g>
<path d="M10.487,5.774l0.499,1.109c0,0,0.799-0.661,1.035-0.661
	s-0.412-0.945-0.412-0.945L10.487,5.774z"/>
<path d="M5.946,12.433c-1.454,0-2.632,1.249-2.632,2.791
	c0,1.543,1.178,2.793,2.632,2.793s2.632-1.25,2.632-2.793C8.578,13.682,7.399,12.433,5.946,12.433z M5.945,16.322
	c-0.605,0-1.097-0.49-1.097-1.096c0-0.607,0.491-1.099,1.097-1.099c0.606,0,1.097,0.491,1.097,1.099
	C7.042,15.832,6.551,16.322,5.945,16.322z"/>
</svg>
