<?xml version="1.0" encoding="utf-8"?>
<!-- Generator: Adobe Illustrator 16.0.0, SVG Export Plug-In . SVG Version: 6.00 Build 0)  -->
<!DOCTYPE svg PUBLIC "-//W3C//DTD SVG 1.1//EN" "http://www.w3.org/Graphics/SVG/1.1/DTD/svg11.dtd">
<svg version="1.1" xmlns="http://www.w3.org/2000/svg" xmlns:xlink="http://www.w3.org/1999/xlink" x="0px" y="0px"
	 width="24px" height="24px" viewBox="0 0 24 24" enable-background="new 0 0 24 24" xml:space="preserve">
<path d="M2.744,2.044C1.716,2.201,1.014,4.01,4.081,6.129
	C5.651,6.029,4.206,2.215,2.744,2.044z"/>
<path d="M2.061,0.545c0,0,2.917,0.848,3.889,4.238
	C7.371,4.36,6.977,4.658,8.244,4.933c0-0.299-0.748-2.885,0.599-2.888C8.767,1.418,5.202,0.372,2.061,0.545z"/>
<path d="M2.435,6.304c0,0,2.244,1.495,3.266-0.648
	c1.421,1.146,1.869,5.658,2.717,6.73c0.848,1.072-0.523-1.421-4.661,0C2.61,9.595,2.435,6.304,2.435,6.304z"/>
<path d="M10.313,2.187c-0.868,0-1.57,0.691-1.57,1.545
	c0,0.854,0.703,1.545,1.57,1.545s1.571-0.691,1.571-1.545C11.883,2.878,11.18,2.187,10.313,2.187z M10.313,4.28
	c-0.303,0-0.548-0.246-0.548-0.548c0-0.303,0.245-0.548,0.548-0.548s0.549,0.246,0.549,0.548C10.861,4.035,10.616,4.28,10.313,4.28z
	"/>
<path d="M4.43,23.62l8.825-0.101c0,0-2.345-7.776-3.192-7.752
	s-0.848,3.015-5.135,2.815C3.931,19.806,4.43,23.62,4.43,23.62z"/>
<path d="M12.021,2.187l0.636,0.997l0.598-0.126
	c0,0,0.374-1.322,0-1.446S12.208,1.79,12.021,2.187z"/>
<path d="M14.053,1.583c0,0-0.25,1.886,2.168,3.35
	c1.404,0.32,1.295-1.053,0.473-1.477C15.75,2.315,15.123,0.963,14.053,1.583z"/>
<path d="M10.487,5.774l0.499,1.109c0,0,0.799-0.661,1.035-0.661
	s-0.412-0.945-0.412-0.945L10.487,5.774z"/>
<path d="M5.946,12.433c-1.454,0-2.632,1.249-2.632,2.791
	c0,1.543,1.178,2.793,2.632,2.793s2.632-1.25,2.632-2.793C8.578,13.682,7.399,12.433,5.946,12.433z M5.945,16.322
	c-0.605,0-1.097-0.49-1.097-1.096c0-0.607,0.491-1.099,1.097-1.099c0.606,0,1.097,0.491,1.097,1.099
	C7.042,15.832,6.551,16.322,5.945,16.322z"/>
<path d="M16.24,14.206v6.058l-4.96-3.217v-5.983L16.24,14.206z
	 M17.193,14.169v6.095l5.029-3.197v-5.908L17.193,14.169z"/>
<path d="M16.707,13.347l-4.843-3.123l4.655-3.16l5.123,3.271
	L16.707,13.347z"/>
<path d="M12.083,6.41l-0.929,0.655c0,0,0.038,0.617,0.225,0.766
	c0.187,0.15,2.805,0.187,2.805,0.187s1.309-0.804,0-1.608C12.762,6.447,12.083,6.41,12.083,6.41z"/>
</svg>
