<?xml version="1.0" encoding="utf-8"?>
<!-- Generator: Adobe Illustrator 16.0.0, SVG Export Plug-In . SVG Version: 6.00 Build 0)  -->
<!DOCTYPE svg PUBLIC "-//W3C//DTD SVG 1.1//EN" "http://www.w3.org/Graphics/SVG/1.1/DTD/svg11.dtd">
<svg version="1.1" xmlns="http://www.w3.org/2000/svg" xmlns:xlink="http://www.w3.org/1999/xlink" x="0px" y="0px" width="24px"
	 height="24px" viewBox="0 0 24 24" enable-background="new 0 0 24 24" xml:space="preserve">

	<path d="M4.095,2.648C3.124,2.796,2.462,4.501,5.356,6.498
		C6.839,6.403,5.475,2.81,4.095,2.648z"/>
	<path d="M3.45,1.236c0,0,2.753,0.799,3.671,3.993
		c1.341-0.398,0.97-0.117,2.165,0.141c0-0.282-0.706-2.719,0.565-2.722C9.781,2.059,6.416,1.073,3.45,1.236z"/>
	<path d="M3.803,6.662c0,0,2.119,1.409,3.083-0.611
		c1.341,1.081,1.765,5.332,2.564,6.342c0.8,1.009-0.494-1.339-4.4,0C3.968,9.763,3.803,6.662,3.803,6.662z"/>
	<path d="M11.24,2.783c-0.819,0-1.482,0.651-1.482,1.456
		c0,0.804,0.664,1.456,1.482,1.456c0.819,0,1.483-0.651,1.483-1.456C12.723,3.434,12.059,2.783,11.24,2.783z M11.24,4.755
		c-0.286,0-0.518-0.231-0.518-0.516c0-0.286,0.231-0.517,0.518-0.517c0.287,0,0.519,0.231,0.519,0.517
		C11.758,4.524,11.526,4.755,11.24,4.755z"/>
	<path d="M5.686,22.978l8.332-0.094c0,0-2.213-7.328-3.013-7.304
		c-0.8,0.021-0.801,2.839-4.848,2.651C5.215,19.384,5.686,22.978,5.686,22.978z"/>
	<path d="M12.853,2.783l0.6,0.939l0.564-0.119c0,0,0.353-1.246,0-1.363
		C13.665,2.123,13.029,2.409,12.853,2.783z"/>
	<path d="M14.771,2.213c0,0-0.236,1.777,2.047,3.157
		c1.325,0.301,1.223-0.992,0.446-1.392C16.373,2.904,15.781,1.63,14.771,2.213z"/>
	<path d="M11.405,6.163l0.471,1.045c0,0,0.755-0.623,0.978-0.623
		c0.223,0-0.389-0.891-0.389-0.891L11.405,6.163z"/>
	<path d="M7.118,12.437c-1.373,0-2.485,1.178-2.485,2.63
		c0,1.454,1.112,2.631,2.485,2.631c1.372,0,2.485-1.177,2.485-2.631C9.603,13.614,8.49,12.437,7.118,12.437z M7.117,16.103
		c-0.572,0-1.036-0.462-1.036-1.032c0-0.572,0.464-1.036,1.036-1.036s1.036,0.464,1.036,1.036
		C8.153,15.641,7.689,16.103,7.117,16.103z"/>
	<path d="M16.836,14.107v5.708l-4.682-3.03v-5.638L16.836,14.107z
		 M17.735,14.072v5.743l4.748-3.013v-5.566L17.735,14.072z"/>
	<path d="M17.276,13.298l-4.571-2.942L17.1,7.379l4.836,3.082
		L17.276,13.298z"/>
	<path d="M12.911,6.762l-0.877,0.617c0,0,0.036,0.581,0.212,0.722
		c0.177,0.141,2.647,0.176,2.647,0.176s1.235-0.757,0-1.515C13.553,6.797,12.911,6.762,12.911,6.762z"/>

</svg>
