<?xml version="1.0" encoding="utf-8"?>
<!-- Generator: Adobe Illustrator 16.0.0, SVG Export Plug-In . SVG Version: 6.00 Build 0)  -->
<!DOCTYPE svg PUBLIC "-//W3C//DTD SVG 1.1//EN" "http://www.w3.org/Graphics/SVG/1.1/DTD/svg11.dtd">
<svg version="1.1" xmlns="http://www.w3.org/2000/svg" xmlns:xlink="http://www.w3.org/1999/xlink" x="0px" y="0px" width="24px"
	 height="24px" viewBox="0 0 24 24" enable-background="new 0 0 24 24" xml:space="preserve">
	<path d="M18.874,2.654c1.721,0,3.114,1.402,3.114,3.131
		s-1.394,3.132-3.114,3.132s-3.115-1.402-3.115-3.132S17.153,2.654,18.874,2.654z M11.464,2.531c0,0-0.455-0.079-0.693-0.079
		c-1.721,0-3.115,1.402-3.115,3.131c0,1,0.465,1.888,1.189,2.462L11.464,2.531z M4.118,11.766l2.605,1.512 M14.075,15.223v7.735
		H6.722v-9.68c0,0-3.993-2.348-4.076-2.383l-1.271-0.557c-0.519-0.227-0.557-1.295-0.085-2.388L3.24,3.442
		C3.711,2.352,4.515,1.65,5.035,1.877l1.271,0.557c0.52,0.227,0.557,1.295,0.085,2.387L4.889,8.293 M4.891,8.294
		c0.305,0.132,0.624,0.293,0.945,0.479l6.227,3.615c2.279,1.193,2.012,2.834,2.012,2.834 M9.973,10.415
		c0.38,0.348,0.849,0.61,1.414,0.938l3.317,1.927c0.001-0.002,0.001,9.678,0.001,9.678h8.212v-9.68v-1.163
		c0-1.19-0.96-2.155-2.144-2.155H16.03c0.154-0.007,0,0-0.154,0.007L13.105,8.36c-0.043-0.026-0.085-0.05-0.128-0.073l-0.003-0.001
		l1.519-3.512c0.46-1.065,0.413-2.113-0.106-2.34l-1.271-0.557c-0.52-0.227-1.314,0.453-1.774,1.518L9.437,7.797
		c-0.461,1.066-0.414,2.114,0.106,2.341L9.973,10.415"/>
</svg>
