<?xml version="1.0" encoding="utf-8"?>
<!-- Generator: Adobe Illustrator 16.0.0, SVG Export Plug-In . SVG Version: 6.00 Build 0)  -->
<!DOCTYPE svg PUBLIC "-//W3C//DTD SVG 1.1//EN" "http://www.w3.org/Graphics/SVG/1.1/DTD/svg11.dtd">
<svg version="1.1" xmlns="http://www.w3.org/2000/svg" xmlns:xlink="http://www.w3.org/1999/xlink" x="0px" y="0px" width="24px"
	 height="24px" viewBox="0 0 24 24" enable-background="new 0 0 24 24" xml:space="preserve">
<g id="圖層_4" display="none">
	<path display="inline" stroke="#000000" stroke-width="0.11" stroke-miterlimit="10" d="M18.874,2.654
		c1.721,0,3.114,1.402,3.114,3.131s-1.394,3.132-3.114,3.132s-3.115-1.402-3.115-3.132S17.153,2.654,18.874,2.654z M11.464,2.531
		c0,0-0.455-0.079-0.693-0.079c-1.721,0-3.115,1.402-3.115,3.131c0,1,0.465,1.888,1.189,2.462L11.464,2.531z M4.118,11.766
		l2.605,1.512 M14.075,15.223v7.735H6.722v-9.68c0,0-3.993-2.348-4.076-2.383l-1.271-0.557c-0.519-0.227-0.557-1.295-0.085-2.388
		L3.24,3.442C3.711,2.352,4.515,1.65,5.035,1.877l1.271,0.557c0.52,0.227,0.557,1.295,0.085,2.387L4.889,8.293 M4.891,8.294
		c0.305,0.132,0.624,0.293,0.945,0.479l6.227,3.615c2.279,1.193,2.012,2.834,2.012,2.834 M9.973,10.415
		c0.38,0.348,0.849,0.61,1.414,0.938l3.317,1.927c0.001-0.002,0.001,9.678,0.001,9.678h8.212v-9.68v-1.163
		c0-1.19-0.96-2.155-2.144-2.155H16.03c0.154-0.007,0,0-0.154,0.007L13.105,8.36c-0.043-0.026-0.085-0.05-0.128-0.073l-0.003-0.001
		l1.519-3.512c0.46-1.065,0.413-2.113-0.106-2.34l-1.271-0.557c-0.52-0.227-1.314,0.453-1.774,1.518L9.437,7.797
		c-0.461,1.066-0.414,2.114,0.106,2.341L9.973,10.415"/>
</g>
<g id="圖層_2">
	<path stroke="#000000" stroke-width="0.1" stroke-miterlimit="10" d="M4.095,2.648C3.124,2.796,2.462,4.501,5.356,6.498
		C6.839,6.403,5.475,2.81,4.095,2.648z"/>
	<path stroke="#000000" stroke-width="0.1" stroke-miterlimit="10" d="M3.45,1.236c0,0,2.753,0.799,3.671,3.993
		c1.341-0.398,0.97-0.117,2.165,0.141c0-0.282-0.706-2.719,0.565-2.722C9.781,2.059,6.416,1.073,3.45,1.236z"/>
	<path stroke="#000000" stroke-width="0.1" stroke-miterlimit="10" d="M3.803,6.662c0,0,2.119,1.409,3.083-0.611
		c1.341,1.081,1.765,5.332,2.564,6.342c0.8,1.009-0.494-1.339-4.4,0C3.968,9.763,3.803,6.662,3.803,6.662z"/>
	<path stroke="#000000" stroke-width="0.1" stroke-miterlimit="10" d="M11.24,2.783c-0.819,0-1.482,0.651-1.482,1.456
		c0,0.804,0.664,1.456,1.482,1.456c0.819,0,1.483-0.651,1.483-1.456C12.723,3.434,12.059,2.783,11.24,2.783z M11.24,4.755
		c-0.286,0-0.518-0.231-0.518-0.516c0-0.286,0.231-0.517,0.518-0.517c0.287,0,0.519,0.231,0.519,0.517
		C11.758,4.524,11.526,4.755,11.24,4.755z"/>
	<path stroke="#000000" stroke-width="0.1" stroke-miterlimit="10" d="M5.686,22.978l8.332-0.094c0,0-2.213-7.328-3.013-7.304
		c-0.8,0.021-0.801,2.839-4.848,2.651C5.215,19.384,5.686,22.978,5.686,22.978z"/>
	<path stroke="#000000" stroke-width="0.1" stroke-miterlimit="10" d="M12.853,2.783l0.6,0.939l0.564-0.119c0,0,0.353-1.246,0-1.363
		C13.665,2.123,13.029,2.409,12.853,2.783z"/>
	<path stroke="#000000" stroke-width="0.1" stroke-miterlimit="10" d="M14.771,2.213c0,0-0.236,1.777,2.047,3.157
		c1.325,0.301,1.223-0.992,0.446-1.392C16.373,2.904,15.781,1.63,14.771,2.213z"/>
	<g display="none">
		<path display="inline" stroke="#000000" stroke-width="0.1" stroke-miterlimit="10" d="M17.169,7.124
			c-3.904-0.177-3.904-0.177-3.904-0.177c-0.364,0-0.659,0.295-0.659,0.658s0.295,0.658,0.659,0.658l2.14,0.153l0.039,0.008
			c-0.025,0.114-0.039,0.233-0.039,0.356c0,0.914,0.743,1.656,1.66,1.656c0.916,0,1.659-0.742,1.659-1.656
			c0-0.879-0.686-1.599-1.555-1.652c-0.034-0.002-0.069-0.003-0.104-0.003"/>
		<path display="inline" stroke="#000000" stroke-width="0.1" stroke-miterlimit="10" d="M20.395,12.194v4.533h-1.413v6.108h-3.977
			v-6.108h-1.364v-2.635v-1.898v0.012c0-0.668,0.495-1.21,1.106-1.21h4.541c0.459,0,0.852,0.305,1.02,0.739
			c0.056,0.145,0.087,0.303,0.087,0.471"/>
	</g>
	<path stroke="#000000" stroke-width="0.1" stroke-miterlimit="10" d="M11.405,6.163l0.471,1.045c0,0,0.755-0.623,0.978-0.623
		c0.223,0-0.389-0.891-0.389-0.891L11.405,6.163z"/>
	<path stroke="#000000" stroke-width="0.1" stroke-miterlimit="10" d="M7.118,12.437c-1.373,0-2.485,1.178-2.485,2.63
		c0,1.454,1.112,2.631,2.485,2.631c1.372,0,2.485-1.177,2.485-2.631C9.603,13.614,8.49,12.437,7.118,12.437z M7.117,16.103
		c-0.572,0-1.036-0.462-1.036-1.032c0-0.572,0.464-1.036,1.036-1.036s1.036,0.464,1.036,1.036
		C8.153,15.641,7.689,16.103,7.117,16.103z"/>
	<path stroke="#000000" stroke-width="0.1" stroke-miterlimit="10" d="M16.836,14.107v5.708l-4.682-3.03v-5.638L16.836,14.107z
		 M17.735,14.072v5.743l4.748-3.013v-5.566L17.735,14.072z"/>
	<path stroke="#000000" stroke-width="0.1" stroke-miterlimit="10" d="M17.276,13.298l-4.571-2.942L17.1,7.379l4.836,3.082
		L17.276,13.298z"/>
	<path stroke="#000000" stroke-width="0.1" stroke-miterlimit="10" d="M12.911,6.762l-0.877,0.617c0,0,0.036,0.581,0.212,0.722
		c0.177,0.141,2.647,0.176,2.647,0.176s1.235-0.757,0-1.515C13.553,6.797,12.911,6.762,12.911,6.762z"/>
</g>
<g id="圖層_8" display="none">
	<path display="inline" stroke="#000000" stroke-width="0.1" stroke-miterlimit="10" d="M4.166,19.053
		C4.05,19.149,3.8,19.037,3.611,18.806l-0.511-0.627c-0.19-0.232-0.248-0.498-0.13-0.594l6.263-5.104
		c0.118-0.096,0.367,0.015,0.555,0.247l0.512,0.627c0.189,0.232,0.247,0.499,0.13,0.594L4.166,19.053z M18.414,2.878
		c0.035-0.114,0.019-0.24-0.056-0.337l-0.846-1.099c-0.126-0.164-0.37-0.188-0.546-0.053l-3.325,2.559
		c-0.175,0.134-0.213,0.376-0.087,0.541L14.4,5.588c0.063,0.082,0.155,0.128,0.254,0.138l0.087,0l0.897,0.002
		c0,0,1.097,0.347-0.532,1.345c0,0.133-0.185,0.839-0.185,0.839l-2.808,2.29c-0.118,0.096-0.06,0.362,0.13,0.594l0.51,0.626
		c0.189,0.232,0.438,0.344,0.555,0.248l2.938-2.393 M18.409,2.878c0,0-0.178,1.22,0.72,1.22c1.43,0.631,2.394,1.729,2.127,7.362
		c-0.963,0.083-1.678-3.042-3.723-2.725c-0.78,0.215-1.285,0.542-1.285,0.542 M12.041,13.603c0,0-2.069,1.384-0.208,1.425
		c0.559,0.16,0.753,0.251,1.195,0.739c0.442,0.487,2.144,4.196,5.384,6.032c0.268,1.012,1.393,1.529,2.08,0.415l0.415-0.416
		c1.147-0.631,0.864-1.745-0.133-2.061c-1.678-3.324-5.302-5.202-5.767-5.668c-0.466-0.465-0.549-0.664-0.682-1.229
		c0.049-1.862-1.435,0.138-1.435,0.138L6.025,5.731C5.83,5.525,5.504,5.516,5.297,5.711l0,0C5.091,5.908,5.082,6.233,5.277,6.44
		l6.778,7.152"/>
</g>
<g id="圖層_6" display="none">
	<path display="inline" stroke="#000000" stroke-width="0.1" stroke-miterlimit="10" d="M3.959,22.958H1.443V1.221h2.516V22.958z
		 M19.894,1.221H4.896v21.737h14.998V1.221z M22.558,4.23h-1.776v4.095h1.776V4.23z M22.558,9.657h-1.776v5.211h1.776V9.657z
		 M22.558,15.849h-1.776v4.094h1.776V15.849z"/>
</g>
</svg>
