<?xml version="1.0" encoding="utf-8"?>
<!-- Generator: Adobe Illustrator 16.0.0, SVG Export Plug-In . SVG Version: 6.00 Build 0)  -->
<!DOCTYPE svg PUBLIC "-//W3C//DTD SVG 1.1//EN" "http://www.w3.org/Graphics/SVG/1.1/DTD/svg11.dtd">
<svg version="1.1" xmlns="http://www.w3.org/2000/svg" xmlns:xlink="http://www.w3.org/1999/xlink" x="0px" y="0px" width="24px"
	 height="24px" viewBox="0 0 24 24" enable-background="new 0 0 24 24" xml:space="preserve">

<g>
	<path  d="M12.034,0.625c-6.378,0-11.548,4.337-11.548,9.688
		c0,5.174,4.834,9.399,10.919,9.673l0.079,0.017C11.458,20.001,11.431,20,11.405,20c-0.894,0-1.618,0.668-1.618,1.491
		c0,0.824,0.725,1.492,1.618,1.492c0.1,0,0.198-0.008,0.292-0.023l0.006,0.018c0,0,1.953,0.226,8.729-6.015
		c1.954-1.735,3.151-4.075,3.151-6.65C23.583,4.962,18.412,0.625,12.034,0.625z M7.453,12.563H5.328V7.719h0.797v3.969h1.328V12.563
		z M9.603,12.563H8.781V7.719h0.821V12.563z M14.406,12.563h-0.668l-2.129-2.906c0-0.001,0,2.906,0,2.906h-0.656V7.719h0.656
		l2.129,3.016V7.719h0.668V12.563z M18.875,8.344h-2.656v1.266h2.313v0.813h-2.313v1.266h2.656v0.875h-2.656h-0.776V7.719h0.776
		h2.656V8.344z"/>
</g>
</svg>
