<?xml version="1.0" encoding="utf-8"?>
<!-- Generator: Adobe Illustrator 16.0.0, SVG Export Plug-In . SVG Version: 6.00 Build 0)  -->
<!DOCTYPE svg PUBLIC "-//W3C//DTD SVG 1.1//EN" "http://www.w3.org/Graphics/SVG/1.1/DTD/svg11.dtd">
<svg version="1.1" xmlns="http://www.w3.org/2000/svg" xmlns:xlink="http://www.w3.org/1999/xlink" x="0px" y="0px" width="24px"
	 height="24px" viewBox="0 0 24 24" enable-background="new 0 0 24 24" xml:space="preserve">
	<path d="M4.166,19.053C4.05,19.149,3.8,19.037,3.611,18.806
		l-0.511-0.627c-0.19-0.232-0.248-0.498-0.13-0.594l6.263-5.104c0.118-0.096,0.367,0.015,0.555,0.247l0.512,0.627
		c0.189,0.232,0.247,0.499,0.13,0.594L4.166,19.053z M18.414,2.878c0.035-0.114,0.019-0.24-0.056-0.337l-0.846-1.099
		c-0.126-0.164-0.37-0.188-0.546-0.053l-3.325,2.559c-0.175,0.134-0.213,0.376-0.087,0.541L14.4,5.588
		c0.063,0.082,0.155,0.128,0.254,0.138l0.087,0l0.897,0.002c0,0,1.097,0.347-0.532,1.345c0,0.133-0.185,0.839-0.185,0.839
		l-2.808,2.29c-0.118,0.096-0.06,0.362,0.13,0.594l0.51,0.626c0.189,0.232,0.438,0.344,0.555,0.248l2.938-2.393 M18.409,2.878
		c0,0-0.178,1.22,0.72,1.22c1.43,0.631,2.394,1.729,2.127,7.362c-0.963,0.083-1.678-3.042-3.723-2.725
		c-0.78,0.215-1.285,0.542-1.285,0.542 M12.041,13.603c0,0-2.069,1.384-0.208,1.425c0.559,0.16,0.753,0.251,1.195,0.739
		c0.442,0.487,2.144,4.196,5.384,6.032c0.268,1.012,1.393,1.529,2.08,0.415l0.415-0.416c1.147-0.631,0.864-1.745-0.133-2.061
		c-1.678-3.324-5.302-5.202-5.767-5.668c-0.466-0.465-0.549-0.664-0.682-1.229c0.049-1.862-1.435,0.138-1.435,0.138L6.025,5.731
		C5.83,5.525,5.504,5.516,5.297,5.711l0,0C5.091,5.908,5.082,6.233,5.277,6.44l6.778,7.152"/>
</svg>
